<svg width="512" height="512" viewBox="0 0 512 512" fill="none" xmlns="http://www.w3.org/2000/svg">
  <rect width="512" height="512" rx="112" fill="url(#bg)"/>
  <circle cx="256" cy="140" r="96" fill="url(#halo)" opacity="0.8"/>
  <path d="M136 182C136 170.954 144.954 162 156 162H356C367.046 162 376 170.954 376 182V208H136V182Z" fill="#8C261A"/>
  <path d="M156 208H188V348H156V208Z" fill="#8C261A"/>
  <path d="M324 208H356V348H324V208Z" fill="#8C261A"/>
  <path d="M188 208H324V236H188V208Z" fill="#B7432A"/>
  <rect x="214" y="188" width="84" height="248" rx="18" fill="#F3E8D2"/>
  <rect x="228" y="212" width="56" height="8" rx="4" fill="#8C261A" opacity="0.6"/>
  <rect x="228" y="236" width="56" height="8" rx="4" fill="#8C261A" opacity="0.45"/>
  <rect x="228" y="260" width="56" height="8" rx="4" fill="#8C261A" opacity="0.35"/>
  <path d="M260 102C260 102 286 129 286 154C286 172.225 274.225 184 256 184C237.775 184 226 172.225 226 154C226 129 252 102 252 102H260Z" fill="#C0882D"/>
  <defs>
    <linearGradient id="bg" x1="256" y1="0" x2="256" y2="512" gradientUnits="userSpaceOnUse">
      <stop stop-color="#5F1E16"/>
      <stop offset="1" stop-color="#1A0D0B"/>
    </linearGradient>
    <radialGradient id="halo" cx="0" cy="0" r="1" gradientUnits="userSpaceOnUse" gradientTransform="translate(256 140) rotate(90) scale(96)">
      <stop stop-color="#F3D28B"/>
      <stop offset="1" stop-color="#F3D28B" stop-opacity="0"/>
    </radialGradient>
  </defs>
</svg>
